<svg xmlns="http://www.w3.org/2000/svg" id="export" width="112" height="124" class="canvas" preserveAspectRatio="xMidYMid meet"><rect id="background" width="112" height="124" fill="#fff" pointer-events="all"/><g id="origin" transform="translate(5.077343750000001, 5.077343750000001) scale(1)"><g id="edge-paths" class="edge-paths"><defs><marker id="arrowhead" markerHeight="6" markerUnits="strokeWidth" markerWidth="8" orient="auto" refX="9" refY="5" viewBox="0 0 10 10" style="fill:#000"><path d="M 0 0 L 10 5 L 0 10 L 4 5 z" style="stroke-width:1"/></marker><marker id="arrowhead-select" markerHeight="6" markerUnits="strokeWidth" markerWidth="8" orient="auto" refX="9" refY="5" viewBox="0 0 10 10" style="fill:#e00"><path d="M 0 0 L 10 5 L 0 10 L 4 5 z" style="stroke-width:1"/></marker><marker id="arrowhead-hover" markerHeight="6" markerUnits="strokeWidth" markerWidth="8" orient="auto" refX="9" refY="5" viewBox="0 0 10 10"><path d="M 0 0 L 10 5 L 0 10 L 4 5 z" style="stroke-width:1"/></marker></defs></g><g id="nodes" class="nodes"><g id="node-name-conv1" class="node graph-node"><g class="node-item node-item-type" transform="translate(0,60) translate(0,0)"><path d="M5,0h91.546875a5,5 0 0 1 5,5v16a0,0 0 0 1 0,0h-101.546875a0,0 0 0 1 0,0v-16a5,5 0 0 1 5,-5z" style="stroke:#000;fill:#000;stroke-width:0"/><text x="6" y="15" style="font-family:-apple-system,BlinkMacSystemFont,&quot;Segoe WPC&quot;,&quot;Segoe UI&quot;,Ubuntu,&quot;Droid Sans&quot;,sans-serif,&quot;PingFang SC&quot;;font-size:11px;text-rendering:geometricprecision;user-select:none;fill:#fff">conv1</text><title>?</title></g><g class="node-attribute-list" transform="translate(0,60) translate(0,21)"><path d="M0,0h101.546875a0,0 0 0 1 0,0v27a5,5 0 0 1 -5,5h-91.546875a5,5 0 0 1 -5,-5v-27a0,0 0 0 1 0,0z" style="stroke:#000;fill:#fff;stroke-width:0"/><g class="node-attribute"><text x="6" y="13" xml:space="preserve" style="font-family:-apple-system,BlinkMacSystemFont,&quot;Segoe WPC&quot;,&quot;Segoe UI&quot;,Ubuntu,&quot;Droid Sans&quot;,sans-serif,&quot;PingFang SC&quot;;font-size:9px;font-weight:400;text-rendering:geometricprecision;user-select:none"><title>float32[2,2,2,2]</title><tspan style="font-weight:700">weight</tspan><tspan>〈2×2×2×2〉</tspan></text></g><g class="node-attribute"><text x="6" y="26" xml:space="preserve" style="font-family:-apple-system,BlinkMacSystemFont,&quot;Segoe WPC&quot;,&quot;Segoe UI&quot;,Ubuntu,&quot;Droid Sans&quot;,sans-serif,&quot;PingFang SC&quot;;font-size:9px;font-weight:400;text-rendering:geometricprecision;user-select:none"><title>float32[2]</title><tspan style="font-weight:700">bias</tspan><tspan>〈2〉</tspan></text></g><line x1="0" x2="101.547" y1="0" y2="0" class="node" style="stroke:#333;fill:none;stroke-width:1px"/></g><path d="M5,0h91.546875a5,5 0 0 1 5,5v43a5,5 0 0 1 -5,5h-91.546875a5,5 0 0 1 -5,-5v-43a5,5 0 0 1 5,-5z" class="node node-border" style="stroke:#333;fill:none;stroke-width:1px" transform="translate(0,60)"/></g><g id="node-name-conv2" class="node graph-node"><g class="node-item node-item-type" transform="translate(0,0) translate(0,0)"><path d="M5,0h91.546875a5,5 0 0 1 5,5v16a0,0 0 0 1 0,0h-101.546875a0,0 0 0 1 0,0v-16a5,5 0 0 1 5,-5z" style="stroke:#000;fill:#000;stroke-width:0"/><text x="6" y="15" style="font-family:-apple-system,BlinkMacSystemFont,&quot;Segoe WPC&quot;,&quot;Segoe UI&quot;,Ubuntu,&quot;Droid Sans&quot;,sans-serif,&quot;PingFang SC&quot;;font-size:11px;text-rendering:geometricprecision;user-select:none;fill:#fff">conv2</text><title>?</title></g><g class="node-attribute-list" transform="translate(0,0) translate(0,21)"><path d="M0,0h101.546875a0,0 0 0 1 0,0v14a5,5 0 0 1 -5,5h-91.546875a5,5 0 0 1 -5,-5v-14a0,0 0 0 1 0,0z" style="stroke:#000;fill:#fff;stroke-width:0"/><g class="node-attribute"><text x="6" y="13" xml:space="preserve" style="font-family:-apple-system,BlinkMacSystemFont,&quot;Segoe WPC&quot;,&quot;Segoe UI&quot;,Ubuntu,&quot;Droid Sans&quot;,sans-serif,&quot;PingFang SC&quot;;font-size:9px;font-weight:400;text-rendering:geometricprecision;user-select:none"><title>float32[2,2,2,2]</title><tspan style="font-weight:700">weight</tspan><tspan>〈2×2×2×2〉</tspan></text></g><line x1="0" x2="101.547" y1="0" y2="0" class="node" style="stroke:#333;fill:none;stroke-width:1px"/></g><path d="M5,0h91.546875a5,5 0 0 1 5,5v30a5,5 0 0 1 -5,5h-91.546875a5,5 0 0 1 -5,-5v-30a5,5 0 0 1 5,-5z" class="node node-border" style="stroke:#333;fill:none;stroke-width:1px" transform="translate(0,0)"/></g></g></g></svg>